#!OML:ASF F:\VICON\USERDATA\INSTALL\rory3\rory3.ASF
:FULLY-SPECIFIED
:DEGREES
881
root -9.71968 6.7693 12.2068 1.16464 -55.8082 -7.61732
lowerback 36.6832 5.09356 6.10815
upperback 10.3299 8.22806 5.34272
thorax -6.60802 3.49251 -0.487087
lowerneck -11.1978 -8.67727 -11.3186
upperneck 32.8518 -13.1741 8.18229
head 14.5256 -6.16557 3.10096
rclavicle 5.56597e-015 4.13472e-014
rhumerus 4.23278 -0.0719146 -86.9312
rradius 13.6793
rwrist 52.4791
rhand -60.5072 24.4978
rfingers 7.12502
rthumb -32.6345 -2.57881
lclavicle 5.56597e-015 4.13472e-014
lhumerus -34.3894 -42.2796 104.261
lradius 99.9694
lwrist -27.5381
lhand -52.6227 23.7165
lfingers 7.12502
lthumb -25.1043 52.0862
rfemur -230.547 -74.0665 152.763
rtibia 161.778
rfoot -24.7142 38.383
rtoes 5.9441
lfemur -105.261 59.4066 -17.0212
ltibia 157.093
lfoot -22.8986 -53.3411
ltoes 7.74321
882
root -9.70915 6.83616 12.1863 1.49781 -55.7623 -7.72049
lowerback 36.6837 5.12401 6.15424
upperback 10.3301 8.28513 5.38779
thorax -6.607 3.51811 -0.48338
lowerneck -11.1657 -8.70785 -11.4647
upperneck 32.7475 -13.185 8.23437
head 14.4905 -6.18091 3.14432
rclavicle 1.4392e-013 -8.26944e-014
rhumerus 4.51216 0.246295 -86.7334
rradius 13.633
rwrist 52.0559
rhand -59.7358 23.1222
rfingers 7.12502
rthumb -31.9003 -4.10372
lclavicle 1.4392e-013 -8.26944e-014
lhumerus -34.451 -42.3169 104.393
lradius 100.04
lwrist -27.3912
lhand -52.5055 24.1128
lfingers 7.12502
lthumb -24.992 52.4981
rfemur -227.306 -74.5836 150.7
rtibia 161.241
rfoot -24.9608 37.9218
rtoes 6.4156
lfemur -104.49 58.6048 -17.0617
ltibia 156.523
lfoot -22.3465 -52.7573
ltoes 9.12006
883
root -9.69941 6.9067 12.1605 1.76203 -55.7234 -7.76193
lowerback 36.7287 5.17631 6.22287
upperback 10.3621 8.37 5.38756
thorax -6.57477 3.55846 -0.547895
lowerneck -11.1109 -8.7611 -11.4707
upperneck 32.5107 -13.2049 8.17401
head 14.3679 -6.19685 3.11572
rclavicle 4.92986e-014 -3.97569e-014
rhumerus 4.8658 0.997832 -86.4782
rradius 13.7278
rwrist 51.1407
rhand -59.2438 21.537
rfingers 7.12502
rthumb -31.4316 -5.78134
lclavicle 4.92986e-014 -3.97569e-014
lhumerus -34.3944 -42.414 104.4
lradius 100.117
lwrist -27.1801
lhand -52.3375 23.4853
lfingers 7.12502
lthumb -24.831 51.893
rfemur -223.402 -75.2891 147.939
rtibia 160.693
rfoot -25.1241 37.3949
rtoes 7.21362
lfemur -104.173 57.692 -18.4395
ltibia 156.118
lfoot -33.0945 -45.9684
ltoes -8.90412
884
root -9.68494 6.99807 12.1317 2.04412 -55.6567 -7.80763
lowerback 36.7777 5.18898 6.35306
upperback 10.3659 8.42726 5.33386
thorax -6.55784 3.58734 -0.690384
lowerneck -11.1219 -8.81156 -11.3515
upperneck 32.4072 -13.2367 8.03427
head 14.304 -6.21006 3.03155
rclavicle -1.03368e-013 1.74931e-014
rhumerus 5.29501 0.446154 -86.5015
rradius 13.5971
rwrist 51.9119
rhand -58.7786 19.9411
rfingers 7.12502
rthumb -30.9884 -7.46255
lclavicle -1.03368e-013 1.74931e-014
lhumerus -34.326 -42.5465 104.342
lradius 100.045
lwrist -27.0198
lhand -52.2669 22.3173
lfingers 7.12502
lthumb -24.7634 50.7342
rfemur -218.212 -76.0591 144.176
rtibia 159.953
rfoot -25.8562 36.4407
rtoes 5.6639
lfemur -102.964 58.4857 -16.1742
ltibia 155.564
lfoot -20.5068 -53.5658
ltoes 14.6801
885
root -9.66977 7.0953 12.1038 2.26144 -55.568 -7.76583
lowerback 36.8198 5.16431 6.48016
upperback 10.3815 8.43134 5.24188
thorax -6.52123 3.59315 -0.850868
lowerneck -11.2524 -8.8466 -11.34
upperneck 32.4025 -13.2765 8.05314
head 14.3371 -6.21651 3.02451
rclavicle -1.04958e-013 -7.95139e-014
rhumerus 5.7572 0.390805 -86.5411
rradius 13.597
rwrist 51.9062
rhand -58.121 17.518
rfingers 7.12502
rthumb -30.3613 -10.0032
lclavicle -1.04958e-013 -7.95139e-014
lhumerus -34.1899 -42.6406 104.208
lradius 99.8593
lwrist -26.999
lhand -52.3511 21.4431
lfingers 7.12502
lthumb -24.844 49.849
rfemur -213.166 -76.6689 140.424
rtibia 159.163
rfoot -26.4409 35.7991
rtoes 4.78668
lfemur -102.15 55.2087 -15.7522
ltibia 154.758
lfoot -19.4091 -52.2907
ltoes 13.8336
886
root -9.65416 7.19757 12.0738 2.53523 -55.3789 -7.76042
lowerback 36.9056 5.12877 6.58203
upperback 10.3273 8.43442 5.2113
thorax -6.59081 3.59233 -0.942273
lowerneck -11.2262 -8.85288 -11.4476
upperneck 32.3304 -13.307 8.22245
head 14.3283 -6.22182 3.10602
rclavicle -1.30403e-013 -5.08889e-014
rhumerus 6.06697 0.0146295 -86.5519
rradius 13.6052
rwrist 52.2428
rhand -56.8784 15.1211
rfingers 7.12502
rthumb -29.1754 -12.6124
lclavicle -1.30403e-013 -5.08889e-014
lhumerus -34.209 -42.7626 104.178
lradius 99.6651
lwrist -27.0251
lhand -52.4544 21.4106
lfingers 7.12502
lthumb -24.943 49.8028
rfemur -208.914 -77.1304 137.439
rtibia 158.343
rfoot -26.7802 35.526
rtoes 5.29904
lfemur -101.295 51.9919 -15.7401
ltibia 153.878
lfoot -19.4572 -50.2929
ltoes 13.1658
887
root -9.63728 7.29792 12.0452 2.89813 -55.1495 -7.82934
lowerback 36.9882 5.07783 6.75203
upperback 10.2331 8.45135 5.20067
thorax -6.69618 3.59654 -1.05395
lowerneck -11.0286 -8.86105 -11.4518
upperneck 32.1193 -13.3235 8.2742
head 14.1963 -6.22971 3.13053
rclavicle 8.74653e-015 1.90833e-014
rhumerus 6.34245 -1.10314 -86.6401
rradius 13.4658
rwrist 53.6035
rhand -55.9589 13.8483
rfingers 7.12502
rthumb -28.2969 -14.0342
lclavicle 8.74653e-015 1.90833e-014
lhumerus -34.3396 -42.8981 104.287
lradius 99.4464
lwrist -26.9502
lhand -52.5879 21.2974
lfingers 7.12502
lthumb -25.071 49.6717
rfemur -203.714 -77.6227 133.421
rtibia 157.529
rfoot -27.0157 35.2621
rtoes 5.48758
lfemur -100.351 50.4782 -15.9084
ltibia 153.092
lfoot -20.5872 -48.7906
ltoes 12.9831
888
root -9.61956 7.40229 12.019 3.19457 -55.0085 -7.80965
lowerback 36.9947 5.05452 6.90158
upperback 10.2064 8.47742 5.17424
thorax -6.70032 3.61034 -1.16619
lowerneck -10.9588 -8.90625 -11.3812
upperneck 31.9794 -13.3379 8.12783
head 14.1002 -6.24528 3.05837
rclavicle -5.00937e-014 1.90833e-014
rhumerus 6.71612 -1.76141 -86.6595
rradius 13.4676
rwrist 53.9207
rhand -54.8887 13.8732
rfingers 7.12502
rthumb -27.2737 -14.1745
lclavicle -5.00937e-014 1.90833e-014
lhumerus -34.3119 -42.9822 104.309
lradius 99.2253
lwrist -26.903
lhand -52.5765 21.6368
lfingers 7.12502
lthumb -25.06 50.0127
rfemur -196.314 -78.1941 126.989
rtibia 156.692
rfoot -27.0094 35.0616
rtoes 5.7964
lfemur -99.4611 48.9615 -16.0574
ltibia 152.294
lfoot -22.5163 -47.1341
ltoes 9.78191
889
root -9.60258 7.51735 11.9908 3.36325 -54.898 -7.66292
lowerback 37.0266 5.07281 6.91704
upperback 10.2066 8.50892 5.18829
thorax -6.70978 3.62417 -1.17215
lowerneck -10.9449 -8.94092 -11.4042
upperneck 31.8506 -13.3158 7.9994
head 14.0274 -6.25178 3.0135
rclavicle 1.1609e-013 -4.92986e-014
rhumerus 7.09031 -1.60888 -86.4294
rradius 13.5412
rwrist 53.4568
rhand -53.9852 12.5028
rfingers 7.12502
rthumb -26.4092 -15.6777
lclavicle 1.1609e-013 -4.92986e-014
lhumerus -34.1911 -43.0276 104.295
lradius 98.9451
lwrist -26.8974
lhand -52.6678 22.7273
lfingers 7.12502
lthumb -25.1475 51.0909
rfemur -188.413 -78.5217 120.058
rtibia 155.817
rfoot -27.276 34.6086
rtoes 5.44846
lfemur -98.5071 47.1063 -15.9392
ltibia 151.434
lfoot -23.1394 -45.8845
ltoes 7.82223
890
root -9.5862 7.64219 11.9591 3.55661 -54.789 -7.50937
lowerback 37.0599 5.12706 6.88624
upperback 10.1796 8.57532 5.21681
thorax -6.75787 3.65251 -1.1549
lowerneck -10.9583 -8.96565 -11.5014
upperneck 31.7396 -13.3126 8.01886
head 13.9913 -6.2568 3.03604
rclavicle 1.09729e-013 -1.59028e-014
rhumerus 7.42184 -1.15552 -86.0963
rradius 13.5995
rwrist 52.6414
rhand -52.9011 10.18
rfingers 7.12502
rthumb -25.371 -18.1521
lclavicle 1.09729e-013 -1.59028e-014
lhumerus -34.1461 -43.0936 104.324
lradius 98.7131
lwrist -26.64
lhand -52.5637 22.6319
lfingers 7.12502
lthumb -25.0478 51.0095
rfemur -180.566 -78.527 113.318
rtibia 154.873
rfoot -27.5988 33.9948
rtoes 4.97643
lfemur -97.5809 45.3333 -15.9102
ltibia 150.507
lfoot -24.4677 -44.3464
ltoes 4.73779
891
root -9.56691 7.77334 11.9258 3.83412 -54.635 -7.45857
lowerback 37.1221 5.13774 6.95405
upperback 10.1518 8.62025 5.20664
thorax -6.79643 3.67183 -1.2201
lowerneck -11.1116 -9.02285 -11.5885
upperneck 31.7195 -13.3813 8.1104
head 14.0419 -6.27742 3.06765
rclavicle -7.79236e-014 -2.22639e-014
rhumerus 7.79293 -0.945687 -85.9068
rradius 13.6357
rwrist 51.8857
rhand -52.593 10.2033
rfingers 7.12502
rthumb -25.0758 -18.1704
lclavicle -7.79236e-014 -2.22639e-014
lhumerus -34.0003 -43.2393 104.136
lradius 98.5474
lwrist -26.213
lhand -52.1756 21.7669
lfingers 7.12502
lthumb -24.6758 50.1958
rfemur -171.909 -78.3269 105.913
rtibia 153.83
rfoot -27.8625 33.2371
rtoes 4.47401
lfemur -96.6454 43.519 -15.8227
ltibia 149.534
lfoot -25.9614 -42.6636
ltoes 1.82771
892
root -9.54822 7.90065 11.8947 4.08063 -54.5088 -7.43969
lowerback 37.1828 5.1156 7.08307
upperback 10.1618 8.6342 5.14798
thorax -6.77625 3.68024 -1.35161
lowerneck -11.2806 -9.05816 -11.4564
upperneck 31.6649 -13.4056 8.03127
head 14.0387 -6.27367 3.0019
rclavicle -3.18055e-015 -3.02153e-014
rhumerus 8.15608 -0.82134 -85.793
rradius 13.8758
rwrist 51.8658
rhand -51.4093 8.38647
rfingers 7.12502
rthumb -23.9412 -20.1409
lclavicle -3.18055e-015 -3.02153e-014
lhumerus -33.7952 -43.454 103.805
lradius 98.3579
lwrist -25.6808
lhand -52.248 21.826
lfingers 7.12502
lthumb -24.7452 50.2454
rfemur -162.088 -78.0644 97.181
rtibia 152.812
rfoot -27.9835 32.6529
rtoes 3.89017
lfemur -95.5817 41.777 -15.5545
ltibia 148.508
lfoot -25.709 -41.867
ltoes 3.04704
893
root -9.53062 8.02877 11.8653 4.33544 -54.4261 -7.42254
lowerback 37.1741 5.06808 7.24718
upperback 10.1621 8.62691 5.09744
thorax -6.73993 3.68049 -1.48102
lowerneck -11.3019 -9.03642 -11.3753
upperneck 31.5702 -13.3228 7.88738
head 13.97 -6.24393 2.94432
rclavicle 2.22639e-014 -1.19271e-013
rhumerus 8.51751 -1.00608 -85.7253
rradius 13.8987
rwrist 52.0167
rhand -50.8508 7.96649
rfingers 7.12502
rthumb -23.4055 -20.6302
lclavicle 2.22639e-014 -1.19271e-013
lhumerus -33.7697 -43.5233 103.755
lradius 98.0793
lwrist -25.1873
lhand -52.5563 21.9907
lfingers 7.12502
lthumb -25.0406 50.3692
rfemur -151.357 -77.4506 87.3138
rtibia 151.81
rfoot -27.5521 32.4177
rtoes 4.08568
lfemur -94.6111 40.0826 -15.206
ltibia 147.411
lfoot -24.3979 -41.7871
ltoes 5.81384
